<svg width="343" height="342" viewBox="0 0 343 342" fill="none" xmlns="http://www.w3.org/2000/svg">
<path fill-rule="evenodd" clip-rule="evenodd" d="M140.817 295.96C128.261 302.492 113.882 306.737 99.749 307.948C90.1578 308.776 53.6203 304.147 76.1382 292.728C94.4497 283.443 110.092 265.098 121.72 248.768C128.215 239.663 133.89 230.085 138.66 219.989C140.538 215.93 142.44 211.881 144.358 207.849C146.071 204.313 148.94 196.738 148.94 193.654C112.602 196.852 74.6754 230.744 53.1593 257.541C49.6131 261.956 46.7158 270.148 41.8206 273.307C35.2747 273.471 33.2427 260.041 32.9865 255.993C31.7798 236.825 36.2424 217.416 44.7805 200.225C27.3457 192.933 -21.925 176.469 13.087 154.7C18.0106 151.637 20.6575 149.177 25.9511 147.02C31.1878 144.886 39.8853 142.898 44.0405 139.582C36.9824 124.643 32.9751 108.336 32.8556 91.8213C32.8158 85.7795 36.231 57.2764 45.8336 72.2937C55.271 87.0633 66.2112 99.817 79.895 110.938C99.4189 126.817 122.643 142.391 147.466 147.611C151.473 137.16 134.681 112.295 129.502 104.344C118.726 87.7897 106.261 74.4278 92.6054 60.3564C85.2968 52.8281 75.1421 49.2582 67.6798 41.651C69.7745 34.7363 82.724 32.7205 88.4331 32.6811C106.733 32.5741 124.788 36.4031 140.817 45.2997C145.417 27.9794 154.706 9.93834 170.359 0C187.026 3.92466 200.157 29.0492 202.127 44.579C207.278 44.2749 217.82 39.7083 222.26 37.2083C229.312 33.2273 241.419 33.0527 249.445 32.484C258.353 31.8477 266.601 32.8838 273.728 38.5878C279.995 43.6105 265.901 48.757 262.588 51.1332C245.427 63.4646 230.923 79.1351 218.93 96.3879C209.749 109.592 194.778 130.713 195.478 147.611C221.947 136.569 245.677 127.38 267.677 107.74C277.706 98.7866 286.734 88.7018 294.305 77.6204C296.399 74.5573 301.346 62.1076 305.899 70.0414C309.514 76.3423 310.618 82.0125 310.857 89.3888C311.358 104.299 308.079 119.491 302.034 133.129C297.39 143.602 321.496 148.343 330.455 154.351C362.763 176.047 319.651 193.328 299.638 200.237C306.138 218.869 313.464 237.963 310.908 258.048C307.322 286.275 294.487 261.871 285.601 251.387C275.065 238.926 262.383 229.781 249.918 219.86C237.367 209.882 212.543 192.922 195.478 193.654C193.839 210.338 211.53 232.816 220.416 245.688C230.866 260.841 243.497 274.501 258.04 285.875C262.998 289.76 269.777 292.694 274.234 297.058C281.048 303.73 264.292 307.948 259.748 308.381C239.837 308.928 220.74 304.553 202.861 295.96C198 314.739 190.003 341.271 174.053 341.271C158.713 341.271 141.814 309.508 140.817 295.96Z" fill="#3C6D7F"/>
</svg>
