<svg width="711" height="353" viewBox="0 0 711 353" fill="none" xmlns="http://www.w3.org/2000/svg">
<path fill-rule="evenodd" clip-rule="evenodd" d="M209.859 73.5547C203.276 81.6838 204.547 93.631 212.702 100.235C220.858 106.839 232.808 105.599 239.391 97.4695C245.979 89.3348 244.708 77.3877 236.552 70.7836C228.396 64.1794 216.446 65.4201 209.859 73.5547ZM166.211 103.312C159.628 111.441 160.899 123.388 169.055 129.993C177.21 136.597 189.161 135.356 195.744 127.227C202.331 119.092 201.06 107.145 192.905 100.541C184.749 93.9369 172.798 95.1775 166.211 103.312ZM191.725 29.7566C185.142 37.8857 186.413 49.8328 194.569 56.4369C202.724 63.0411 214.675 61.8004 221.258 53.6713C227.845 45.5366 226.574 33.5895 218.418 26.9854C210.263 20.3813 198.312 21.6219 191.725 29.7566ZM159.95 58.6494C153.367 66.7786 154.638 78.7257 162.794 85.3298C170.949 91.9339 182.9 90.6933 189.483 82.5642C196.07 74.4295 194.799 62.4824 186.643 55.8783C178.488 49.2741 166.537 50.5148 159.95 58.6494ZM121.159 104.556C114.576 112.685 115.847 124.632 124.003 131.236C132.158 137.84 144.109 136.6 150.692 128.471C157.279 120.336 156.008 108.389 147.852 101.785C139.697 95.1805 127.746 96.4211 121.159 104.556ZM89.8511 139.741C83.2682 147.87 84.5393 159.817 92.6949 166.421C100.85 173.025 112.801 171.785 119.384 163.656C125.971 155.521 124.7 143.574 116.545 136.97C108.389 130.366 96.4384 131.606 89.8511 139.741ZM114.464 55.6334C107.881 63.7625 109.152 75.7097 117.308 82.3138C125.463 88.9179 137.414 87.6773 143.997 79.5482C150.584 71.4135 149.313 59.4664 141.157 52.8622C133.002 46.2581 121.051 47.4988 114.464 55.6334ZM145.646 15.1045C139.063 23.2336 140.334 35.1807 148.49 41.7848C156.645 48.389 168.596 47.1483 175.179 39.0192C181.766 30.8845 180.495 18.9374 172.339 12.3333C164.184 5.72916 152.233 6.96979 145.646 15.1045ZM73.7596 87.4721C67.1767 95.6013 68.4479 107.548 76.6034 114.153C84.759 120.757 96.7095 119.516 103.292 111.387C109.88 103.252 108.609 91.3051 100.453 84.701C92.2975 78.0969 80.347 79.3375 73.7596 87.4721ZM44.0003 122.308C37.4174 130.437 38.6885 142.384 46.8441 148.988C54.9997 155.593 66.9502 154.352 73.5331 146.223C80.1205 138.088 78.8493 126.141 70.6937 119.537C62.5382 112.933 50.5877 114.173 44.0003 122.308ZM99.6811 7.0147C93.0982 15.1438 94.3693 27.091 102.525 33.6951C110.68 40.2992 122.631 39.0586 129.214 30.9294C135.801 22.7948 134.53 10.8477 126.375 4.24354C118.219 -2.36059 106.268 -1.11996 99.6811 7.0147ZM70.4765 41.5367C63.8936 49.6658 65.1648 61.613 73.3203 68.2171C81.4759 74.8212 93.4264 73.5806 100.009 65.4514C106.597 57.3168 105.326 45.3697 97.17 38.7655C89.0144 32.1614 77.0639 33.402 70.4765 41.5367ZM23.4745 77.5604C16.8916 85.6895 18.1628 97.6366 26.3183 104.241C34.4739 110.845 46.4244 109.604 53.0073 101.475C59.5947 93.3405 58.3235 81.3933 50.168 74.7892C42.0124 68.1851 30.0619 69.4257 23.4745 77.5604ZM28.1571 30.4764C21.5742 38.6056 22.8453 50.5527 31.0009 57.1568C39.1565 63.761 51.107 62.5203 57.6899 54.3912C64.2773 46.2565 63.0061 34.3094 54.8505 27.7053C46.695 21.1012 34.7445 22.3418 28.1571 30.4764Z" fill="#3C6D7F"/>
<path fill-rule="evenodd" clip-rule="evenodd" d="M693.449 8.75739C703.964 15.9387 710.615 28.265 709.998 39.4315C709.538 47.7857 705.062 54.3995 697.408 58.0569C692.757 60.2802 683.407 60.8633 679.327 56.6989C678.622 55.9719 678.276 54.9918 678.376 54.0109C678.438 53.401 678.728 52.2602 680.068 51.416C685.027 48.2835 687.163 42.2288 685.8 35.1831C684.213 26.9853 678.367 20.2113 671.584 18.7104C662.779 16.7573 655.183 20.6188 650.345 24.197C640.83 31.2536 633.727 43.2565 632.278 54.5201L632.074 56.4525C630.64 65.0248 630.901 73.6193 632.804 81.857C634.434 85.3795 635.909 88.9891 637.242 92.6778C645.889 116.603 647.825 142.255 642.841 166.86C637.703 192.182 625.487 214.9 607.517 232.553C584.902 254.758 553.935 268.109 518.032 271.16C477.069 274.642 432.994 266.713 386.538 256.834L358.583 250.794C358.457 260.621 356.774 270.389 353.558 279.927C349.416 292.216 342.636 304.025 333.953 314.069C325.445 323.914 315.034 332.145 303.852 337.868C295.397 342.201 285.961 345.063 276.417 346.405C261.574 348.491 246.456 346.903 234.284 341.473C213.978 333.031 201.382 317.181 199.86 298.046C198.565 281.754 205.865 265.759 218.035 258.244C228.13 252.005 239.896 252.302 251.145 259.086C257.884 263.135 266.166 274.042 264.327 282.602C263.853 284.541 262.665 286.016 261.029 286.805C260.019 287.29 257.953 287.925 255.389 286.749C245.848 282.38 235.909 288.19 231.806 296.333L231.286 297.463L230.915 298.414C229.069 303.53 227.704 313.956 242.233 321.925C258.246 329.81 276.977 329.2 294.763 320.092C303.64 315.546 311.961 308.951 318.826 301.015C325.827 292.915 331.286 283.421 334.614 273.57C337.602 264.718 338.9 255.625 338.487 246.486L328.968 244.51L319.689 242.647C271.636 233.193 222.003 226.666 175.747 235.902C117.265 247.591 72.0505 283.739 37.5211 346.404C36.1052 348.974 33.7683 350.839 30.9472 351.655C28.1308 352.466 25.1571 352.138 22.5933 350.723C17.2936 347.797 15.3568 341.112 18.2761 335.821L19.4752 333.678L20.9467 331.099C35.6102 291.769 53.5245 257.781 74.3732 229.684C57.9531 234.357 40.8297 233.351 27.1953 226.686C25.3031 225.763 23.4993 224.763 21.7847 223.691C5.5581 213.552 -2.61352 197.067 0.745993 180.327C3.24805 167.842 11.996 156.904 22.5158 153.108C30.3861 150.268 38.2231 151.804 44.5804 157.42C48.4442 160.832 52.6342 169.211 50.3952 174.594C50.0014 175.527 49.2345 176.229 48.2925 176.52C47.7904 176.675 46.8638 176.828 45.7904 176.3L45.2427 175.976C40.4216 172.636 34.0134 173.035 28.0601 177.042C21.134 181.706 17.1826 189.734 18.4513 196.564C20.0938 205.432 26.6168 210.916 31.8008 213.971C41.9605 219.94 55.6931 221.801 66.6003 218.801L68.6319 218.187C78.148 215.901 86.8505 211.626 94.2708 205.644L92.5571 207.494C121.031 176.126 154.557 154.358 189.51 144.551C220.698 135.804 252.024 136.481 280.102 146.507C295.198 151.891 308.441 159.683 319.465 169.668C338.633 187.033 350.906 206.555 355.99 227.744L369.585 230.689C371.346 231.072 373.652 231.634 376.415 232.324L389.508 235.586L395.859 237.11C427.511 244.555 476.839 253.816 499.319 239.981C504.99 236.491 508.428 231.758 509.828 225.509C510.927 220.626 514.306 218.763 517.105 218.639C522.15 218.428 526.366 223.315 527.924 228.253C530.407 236.091 530.03 242.564 528.337 247.761C553.875 243.52 575.759 232.965 592.106 216.906C603.171 206.048 611.508 193.014 616.892 178.162C621.103 166.562 618.98 147.592 612.06 134.967C609.445 130.197 605.046 124.28 598.599 122.194L597.186 121.808C592.308 120.718 590.444 117.343 590.324 114.549C590.112 109.509 595.004 105.293 599.952 103.735C606.182 101.765 612.077 101.454 617.483 102.754C617.186 101.869 616.878 100.991 616.561 100.123C606.907 73.3707 588.306 51.5323 562.767 36.9527C536.986 22.2205 512.142 22.8763 495.822 26.0243C482.364 28.6114 469.353 33.9879 458.194 41.5781C447.177 49.0623 438.174 58.573 432.158 69.0859C424.254 82.8891 421.627 98.1853 424.545 113.32C429.197 137.461 443.263 153.845 463.139 158.273C469.77 159.751 476.852 159.822 483.604 158.469C487.053 157.784 490.349 156.753 493.437 155.398L494.545 154.563C495.46 153.876 496.376 153.153 497.279 152.403L498.623 151.257C508.019 143.367 512.139 134.793 510.622 126.396C509.252 118.83 503.219 112.114 495.251 109.285C487.995 106.71 480.662 107.949 475.136 112.686C472.885 114.61 470.658 114.539 469.528 114.331C467.697 113.987 466.135 112.837 465.238 111.174C460.685 102.664 466.214 88.4906 472.178 82.0702C486.199 66.9815 505.586 65.4925 521.549 78.2734C545.11 97.1272 544.635 129.619 530.582 150.289C526.696 157.403 521.194 163.58 514.224 168.653C506.634 174.167 497.529 178.093 487.882 180.011C478.163 181.947 467.936 181.843 458.332 179.706C429.524 173.277 409.345 150.6 402.964 117.488C399.032 97.1393 402.527 76.6398 413.07 58.208C420.756 44.7972 432.082 32.7699 445.821 23.4228C459.429 14.1721 475.284 7.61379 491.671 4.45929C520.284 -1.03121 548.626 3.58448 573.661 17.8844C592.014 28.3595 607.345 42.0508 619.117 58.3232C621.04 40.9587 628.735 25.1465 640.44 14.9896C642.029 13.6083 643.655 12.339 645.311 11.1793C660.985 0.204632 679.352 -0.876013 693.449 8.75739ZM238.479 158.597C241.976 164.389 243.294 171.411 242.248 179.247C241.573 184.354 238.288 189.875 233.313 190.574C230.478 190.95 226.826 189.699 224.901 185.083C220.774 175.16 214.334 169.573 205.216 167.997C201.453 167.348 197.378 167.387 193.109 167.987C162.545 172.282 121.513 205.329 107.369 220.91C97.118 232.205 87.4425 244.938 78.4156 258.996C152.369 195.248 244.166 204.785 333.584 223.024C328.359 209.252 319.125 196.313 306.039 184.46C297.112 176.379 285.825 169.758 273.394 165.322C262.358 161.38 250.66 159.128 238.479 158.597Z" fill="#3C6D7F"/>
</svg>
