<svg width="1990" height="456" viewBox="0 0 1990 456" fill="none" xmlns="http://www.w3.org/2000/svg">
<path fill-rule="evenodd" clip-rule="evenodd" d="M217.979 141.64C212.577 150.597 215.479 162.256 224.465 167.676C233.451 173.095 245.118 170.223 250.52 161.266C255.926 152.303 253.024 140.644 244.038 135.224C235.052 129.804 223.385 132.677 217.979 141.64ZM178.839 177.117C173.436 186.074 176.338 197.733 185.324 203.153C194.311 208.572 205.977 205.7 211.38 196.743C216.786 187.78 213.884 176.121 204.897 170.701C195.911 165.281 184.245 168.154 178.839 177.117ZM193.995 100.751C188.592 109.709 191.494 121.367 200.481 126.787C209.467 132.207 221.133 129.335 226.536 120.378C231.942 111.414 229.04 99.7556 220.054 94.3358C211.067 88.9159 199.401 91.7882 193.995 100.751ZM166.495 133.739C161.092 142.697 163.994 154.355 172.981 159.775C181.967 165.195 193.633 162.323 199.036 153.366C204.442 144.402 201.54 132.744 192.554 127.324C183.567 121.904 171.901 124.776 166.495 133.739ZM134.386 184.544C128.983 193.501 131.885 205.16 140.871 210.58C149.858 216 161.524 213.128 166.926 204.17C172.333 195.207 169.431 183.548 160.444 178.128C151.458 172.709 139.792 175.581 134.386 184.544ZM108.214 223.7C102.811 232.657 105.713 244.316 114.7 249.736C123.686 255.156 135.352 252.284 140.755 243.327C146.161 234.363 143.259 222.704 134.272 217.285C125.286 211.865 113.62 214.737 108.214 223.7ZM121.026 137.007C115.624 145.964 118.526 157.623 127.512 163.043C136.498 168.463 148.165 165.591 153.567 156.633C158.973 147.67 156.071 136.011 147.085 130.592C138.099 125.172 126.432 128.044 121.026 137.007ZM146.339 92.5752C140.936 101.532 143.838 113.191 152.825 118.611C161.811 124.031 173.477 121.159 178.88 112.201C184.286 103.238 181.384 91.5794 172.397 86.1596C163.411 80.7397 151.745 83.612 146.339 92.5752ZM85.0872 174.141C79.6848 183.098 82.5868 194.757 91.5731 200.177C100.559 205.597 112.226 202.724 117.628 193.767C123.034 184.804 120.132 173.145 111.146 167.725C102.16 162.306 90.4934 165.178 85.0872 174.141ZM60.4012 212.738C54.9988 221.696 57.9008 233.354 66.8871 238.774C75.8733 244.194 87.5397 241.322 92.9421 232.365C98.3483 223.401 95.4462 211.743 86.46 206.323C77.4737 200.903 65.8073 203.775 60.4012 212.738ZM99.6981 90.8833C94.2956 99.8405 97.1977 111.499 106.184 116.919C115.17 122.339 126.837 119.467 132.239 110.51C137.645 101.546 134.743 89.8875 125.757 84.4677C116.771 79.0478 105.104 81.9201 99.6981 90.8833ZM75.5184 129.093C70.1159 138.051 73.018 149.709 82.0042 155.129C90.9905 160.549 102.657 157.677 108.059 148.72C113.465 139.756 110.563 128.098 101.577 122.678C92.5909 117.258 80.9245 120.13 75.5184 129.093ZM33.9168 171.239C28.5144 180.196 31.4164 191.855 40.4027 197.274C49.389 202.694 61.0553 199.822 66.4578 190.865C71.8639 181.902 68.9619 170.243 59.9756 164.823C50.9893 159.403 39.323 162.275 33.9168 171.239ZM32.08 123.958C26.6776 132.915 29.5796 144.574 38.5659 149.994C47.5522 155.414 59.2185 152.541 64.621 143.584C70.0271 134.621 67.1251 122.962 58.1388 117.542C49.1525 112.122 37.4862 114.995 32.08 123.958Z" fill="#3C6D7F"/>
<path fill-rule="evenodd" clip-rule="evenodd" d="M688.066 10.9553C699.468 16.6224 707.751 27.9171 708.676 39.0622C709.368 47.4005 705.844 54.5669 698.766 59.2421C694.465 62.0838 685.285 63.9471 680.67 60.3835C679.872 59.7603 679.394 58.8371 679.358 57.8518C679.336 57.2391 679.467 56.0692 680.678 55.0489C685.159 51.2642 686.442 44.9732 684.123 38.1818C681.424 30.2802 674.702 24.3744 667.777 23.8206C658.787 23.0969 651.794 27.9664 647.494 32.1759C639.04 40.4739 633.655 53.3395 633.769 64.6954L633.832 66.6376C633.591 75.3256 635.031 83.8025 638.049 91.7002C640.148 94.9651 642.106 98.3375 643.933 101.808C655.787 124.316 661.234 149.459 659.68 174.515C658.073 200.303 649.097 224.486 633.726 244.442C614.379 269.545 585.542 287.029 550.4 294.988C510.306 304.07 465.558 302.277 418.185 298.881L389.665 296.743C390.892 306.494 390.569 316.4 388.694 326.289C386.282 339.032 381.19 351.66 373.971 362.804C366.897 373.725 357.717 383.309 347.429 390.516C339.65 395.97 330.697 400.103 321.428 402.744C307.013 406.851 291.821 407.358 279.017 403.653C257.743 398.084 243.088 384.116 238.948 365.373C235.425 349.413 240.457 332.567 251.477 323.449C260.618 315.882 272.313 314.558 284.388 319.731C291.62 322.814 301.323 332.479 300.679 341.21C300.476 343.196 299.502 344.821 297.991 345.827C297.057 346.446 295.097 347.359 292.396 346.547C282.345 343.532 273.3 350.653 270.355 359.283L269.995 360.474L269.758 361.466C268.634 366.789 268.716 377.303 284.202 383.198C301.148 388.806 319.617 385.626 335.981 374.158C344.149 368.436 351.483 360.758 357.192 351.954C363.012 342.968 367.114 332.814 369.056 322.598C370.798 313.42 370.834 304.234 369.168 295.239L359.467 294.591L350.02 294.022C301.124 291.266 251.064 291.626 206.519 307.136C150.2 326.756 110.385 368.778 84.8018 435.596C83.7527 438.336 81.6945 440.504 79.0125 441.701C76.3343 442.891 73.3438 442.976 70.6097 441.927C64.958 439.757 62.1204 433.402 64.2842 427.76L65.1772 425.472L66.2801 422.716C75.3958 381.743 88.4659 345.615 105.253 314.917C89.6312 321.804 72.532 323.162 58.1107 318.435C56.1095 317.782 54.1854 317.039 52.3397 316.213C34.8729 308.402 24.5119 293.197 25.5374 276.154C26.2989 263.444 33.4595 251.406 43.3573 246.2C50.7623 242.305 58.7361 242.748 65.8053 247.437C70.1017 250.285 75.404 258.008 73.9267 263.648C73.6649 264.626 73.0017 265.427 72.1088 265.845C71.6327 266.067 70.7361 266.347 69.6002 265.971L69.0132 265.726C63.7784 263.08 57.486 264.357 52.1404 269.144C45.9214 274.716 43.1116 283.212 45.3074 289.802C48.1539 298.36 55.3691 302.895 60.9238 305.208C71.808 309.723 85.6659 309.678 96.057 305.207L97.9848 304.318C107.096 300.746 115.128 295.315 121.655 288.369L120.212 290.437C144.102 255.451 174.316 229.28 207.588 214.76C237.277 201.807 268.399 198.169 297.588 204.239C313.282 207.495 327.47 213.393 339.763 221.767C361.136 236.331 375.977 253.98 383.927 274.268L397.798 275.316C399.594 275.453 401.956 275.692 404.788 275.995L418.205 277.427L424.706 278.062C457.08 281.084 507.213 283.473 527.577 266.679C532.714 262.441 535.469 257.281 535.996 250.899C536.414 245.911 539.504 243.601 542.259 243.094C547.228 242.191 552.076 246.452 554.298 251.128C557.835 258.55 558.352 265.014 557.389 270.394C582.101 262.682 602.326 249.217 616.31 231.063C625.776 218.787 632.242 204.729 635.532 189.279C638.107 177.209 633.396 158.712 624.806 147.159C621.56 142.794 616.388 137.537 609.716 136.358L608.263 136.17C603.282 135.761 600.972 132.674 600.469 129.924C599.565 124.96 603.831 120.111 608.518 117.888C614.418 115.08 620.214 113.962 625.747 114.506C625.331 113.67 624.906 112.843 624.473 112.026C611.231 86.8558 589.804 67.783 562.502 56.8539C534.94 45.807 510.423 49.8731 494.69 55.2356C481.716 59.6488 469.568 66.7634 459.559 75.8161C449.676 84.7442 442.066 95.4027 437.553 106.643C431.623 121.402 431.124 136.914 436.096 151.504C444.023 174.776 460.209 189.07 480.505 190.722C487.276 191.274 494.301 190.37 500.802 188.102C504.125 186.949 507.247 185.475 510.119 183.708L511.102 182.729C511.914 181.923 512.722 181.081 513.513 180.213L514.687 178.894C522.908 169.786 525.81 160.727 523.153 152.618C520.756 145.313 513.857 139.49 505.575 137.784C498.033 136.231 490.941 138.467 486.118 143.918C484.154 146.134 481.938 146.37 480.79 146.319C478.929 146.23 477.224 145.306 476.107 143.782C470.427 135.979 473.954 121.18 478.978 114C490.792 97.1269 509.789 92.986 527.359 103.45C553.288 118.885 557.286 151.134 546.209 173.54C543.338 181.12 538.738 187.995 532.532 193.979C525.772 200.484 517.293 205.625 508.002 208.851C498.641 212.106 488.497 213.408 478.691 212.612C449.272 210.206 426.166 190.52 415.293 158.6C408.599 138.985 409.242 118.2 417.15 98.4934C422.919 84.153 432.484 70.6824 444.807 59.5348C457.013 48.5006 471.816 39.8242 487.613 34.4462C515.199 25.0732 543.907 25.7474 570.67 36.4688C590.289 44.3204 607.358 55.7733 621.255 70.2723C620.772 52.8083 626.22 36.0882 636.417 24.418C637.801 22.8314 639.237 21.3505 640.718 19.9741C654.733 6.94831 672.778 3.35206 688.066 10.9553ZM258.024 221.938C262.284 227.194 264.555 233.968 264.596 241.873C264.63 247.024 262.135 252.945 257.305 254.321C254.548 255.084 250.758 254.347 248.217 250.039C242.765 240.779 235.618 236.13 226.369 235.823C222.553 235.698 218.522 236.296 214.375 237.478C184.693 245.935 148.595 284.31 136.728 301.689C128.128 314.286 120.295 328.229 113.288 343.395C177.772 270.083 270.008 266.905 361.085 272.674C354.015 259.751 343.09 248.205 328.498 238.265C318.545 231.487 306.455 226.482 293.531 223.798C282.058 221.41 270.162 220.789 258.024 221.938Z" fill="#3C6D7F"/>
<path fill-rule="evenodd" clip-rule="evenodd" d="M965.489 295.96C952.933 302.492 938.554 306.737 924.421 307.948C914.83 308.776 878.292 304.147 900.81 292.728C919.122 283.443 934.763 265.098 946.392 248.768C952.887 239.663 958.562 230.085 963.332 219.989C965.21 215.93 967.112 211.881 969.03 207.849C970.743 204.313 973.612 196.738 973.612 193.654C937.274 196.852 899.347 230.744 877.831 257.541C874.285 261.956 871.388 270.148 866.493 273.307C859.947 273.471 857.915 260.041 857.658 255.993C856.452 236.825 860.914 217.416 869.452 200.225C852.018 192.933 802.747 176.469 837.759 154.7C842.683 151.637 845.329 149.177 850.623 147.02C855.86 144.886 864.557 142.898 868.712 139.582C861.654 124.643 857.647 108.336 857.527 91.8213C857.488 85.7795 860.903 57.2764 870.505 72.2937C879.943 87.0633 890.883 99.817 904.567 110.938C924.091 126.817 947.314 142.391 972.138 147.611C976.145 137.16 959.353 112.295 954.173 104.344C943.398 87.7897 930.933 74.4278 917.277 60.3564C909.969 52.8281 899.814 49.2582 892.352 41.651C894.446 34.7363 907.396 32.7205 913.105 32.6811C931.405 32.5741 949.46 36.4031 965.489 45.2997C970.088 27.9794 979.378 9.93834 995.031 0C1011.7 3.92466 1024.83 29.0492 1026.8 44.579C1031.95 44.2749 1042.49 39.7083 1046.93 37.2083C1053.98 33.2273 1066.09 33.0527 1074.12 32.484C1083.03 31.8477 1091.27 32.8838 1098.4 38.5878C1104.67 43.6105 1090.57 48.757 1087.26 51.1332C1070.1 63.4646 1055.59 79.1351 1043.6 96.3879C1034.42 109.592 1019.45 130.713 1020.15 147.611C1046.62 136.569 1070.35 127.38 1092.35 107.74C1102.38 98.7866 1111.41 88.7018 1118.98 77.6204C1121.07 74.5573 1126.02 62.1076 1130.57 70.0414C1134.19 76.3423 1135.29 82.0125 1135.53 89.3888C1136.03 104.299 1132.75 119.491 1126.71 133.129C1122.06 143.602 1146.17 148.343 1155.13 154.351C1187.44 176.047 1144.32 193.328 1124.31 200.237C1130.81 218.869 1138.14 237.963 1135.58 258.048C1131.99 286.275 1119.16 261.871 1110.27 251.387C1099.74 238.926 1087.06 229.781 1074.59 219.86C1062.04 209.882 1037.22 192.922 1020.15 193.654C1018.51 210.338 1036.2 232.816 1045.09 245.688C1055.54 260.841 1068.17 274.501 1082.71 285.875C1087.67 289.76 1094.45 292.694 1098.91 297.058C1105.72 303.73 1088.96 307.948 1084.42 308.381C1064.51 308.928 1045.41 304.553 1027.53 295.96C1022.67 314.739 1014.67 341.271 998.725 341.271C983.385 341.271 966.485 309.508 965.489 295.96Z" fill="#3C6D7F"/>
<path fill-rule="evenodd" clip-rule="evenodd" d="M1773.31 149.941C1778.48 158.92 1775.38 170.408 1766.37 175.597C1757.36 180.786 1745.86 177.709 1740.69 168.731C1735.52 159.747 1738.62 148.258 1747.63 143.069C1756.64 137.881 1768.13 140.957 1773.31 149.941ZM1811.4 185.857C1816.57 194.835 1813.46 206.323 1804.45 211.512C1795.45 216.701 1783.95 213.624 1778.78 204.646C1773.6 195.662 1776.71 184.173 1785.72 178.985C1794.72 173.796 1806.22 176.872 1811.4 185.857ZM1797.84 109.926C1803.01 118.904 1799.91 130.393 1790.9 135.581C1781.89 140.77 1770.4 137.694 1765.22 128.715C1760.05 119.731 1763.15 108.242 1772.16 103.054C1781.17 97.8649 1792.66 100.942 1797.84 109.926ZM1824.44 143.142C1829.61 152.12 1826.51 163.609 1817.5 168.798C1808.49 173.986 1797 170.91 1791.82 161.932C1786.65 152.947 1789.76 141.459 1798.76 136.27C1807.77 131.081 1819.27 134.158 1824.44 143.142ZM1855.22 194.094C1860.4 203.072 1857.29 214.561 1848.28 219.749C1839.27 224.938 1827.78 221.862 1822.61 212.883C1817.43 203.899 1820.54 192.411 1829.54 187.222C1838.55 182.033 1850.05 185.11 1855.22 194.094ZM1880.38 233.395C1885.55 242.373 1882.45 253.862 1873.44 259.05C1864.43 264.239 1852.93 261.162 1847.76 252.184C1842.59 243.2 1845.69 231.711 1854.7 226.523C1863.71 221.334 1875.2 224.41 1880.38 233.395ZM1869.48 147.285C1874.65 156.263 1871.55 167.752 1862.54 172.941C1853.53 178.129 1842.04 175.053 1836.86 166.075C1831.69 157.09 1834.79 145.602 1843.8 140.413C1852.81 135.224 1864.31 138.301 1869.48 147.285ZM1845.18 102.775C1850.36 111.753 1847.25 123.242 1838.24 128.431C1829.24 133.619 1817.74 130.543 1812.57 121.564C1807.39 112.58 1810.5 101.092 1819.5 95.9029C1828.51 90.7141 1840.01 93.7908 1845.18 102.775ZM1904.29 184.774C1909.46 193.752 1906.35 205.241 1897.34 210.429C1888.34 215.618 1876.84 212.542 1871.67 203.563C1866.49 194.579 1869.6 183.091 1878.61 177.902C1887.61 172.713 1899.11 175.79 1904.29 184.774ZM1927.96 223.494C1933.13 232.473 1930.02 243.961 1921.02 249.15C1912.01 254.339 1900.51 251.262 1895.34 242.284C1890.16 233.299 1893.27 221.811 1902.28 216.622C1911.29 211.433 1922.78 214.51 1927.96 223.494ZM1891.47 102.027C1896.65 111.005 1893.54 122.494 1884.53 127.682C1875.52 132.871 1864.03 129.794 1858.86 120.816C1853.68 111.832 1856.79 100.343 1865.79 95.1546C1874.8 89.9658 1886.3 93.0425 1891.47 102.027ZM1914.64 140.351C1919.81 149.329 1916.7 160.818 1907.7 166.007C1898.69 171.195 1887.19 168.119 1882.02 159.14C1876.84 150.156 1879.95 138.668 1888.96 133.479C1897.97 128.29 1909.46 131.367 1914.64 140.351ZM1954.95 182.915C1960.12 191.893 1957.02 203.382 1948.01 208.57C1939 213.759 1927.5 210.682 1922.33 201.704C1917.16 192.72 1920.26 181.231 1929.27 176.043C1938.28 170.854 1949.77 173.931 1954.95 182.915ZM1957.8 136.131C1962.97 145.109 1959.87 156.598 1950.86 161.787C1941.85 166.975 1930.36 163.899 1925.18 154.921C1920.01 145.936 1923.11 134.448 1932.12 129.259C1941.13 124.07 1952.63 127.147 1957.8 136.131Z" fill="#3C6D7F"/>
<path fill-rule="evenodd" clip-rule="evenodd" d="M1310.3 11.1624C1298.89 16.548 1290.46 27.5688 1289.33 38.588C1288.47 46.832 1291.82 53.9994 1298.74 58.7702C1302.94 61.6701 1312 63.6981 1316.64 60.2607C1317.44 59.6593 1317.93 58.7546 1317.99 57.7795C1318.02 57.1732 1317.92 56.012 1316.74 54.9774C1312.37 51.1401 1311.23 44.8843 1313.66 38.2046C1316.49 30.4329 1323.26 24.7179 1330.13 24.3071C1339.05 23.7693 1345.88 28.731 1350.05 32.9853C1358.26 41.3714 1363.34 54.22 1363 65.4641L1362.9 67.3863C1362.97 75.9952 1361.37 84.3616 1358.22 92.1231C1356.08 95.3147 1354.07 98.6157 1352.2 102.016C1340.01 124.072 1334.11 148.863 1335.15 173.708C1336.23 199.279 1344.64 223.407 1359.47 243.477C1378.13 268.723 1406.34 286.611 1440.98 295.192C1480.51 304.985 1524.86 304.1 1571.84 301.678L1600.13 300.128C1598.72 309.761 1598.85 319.578 1600.51 329.409C1602.64 342.076 1607.43 354.685 1614.36 365.864C1621.15 376.82 1630.05 386.495 1640.09 393.837C1647.69 399.393 1656.47 403.664 1665.6 406.464C1679.8 410.819 1694.83 411.622 1707.58 408.208C1728.76 403.117 1743.56 389.575 1748.03 371.094C1751.84 355.359 1747.19 338.575 1736.45 329.327C1727.55 321.65 1716 320.107 1703.94 324.989C1696.71 327.899 1686.91 337.277 1687.37 345.937C1687.54 347.908 1688.47 349.536 1689.94 350.563C1690.86 351.194 1692.78 352.138 1695.47 351.387C1705.49 348.601 1714.3 355.834 1717.05 364.439L1717.38 365.626L1717.59 366.613C1718.6 371.906 1718.31 382.317 1702.86 387.848C1685.96 393.064 1667.74 389.548 1651.76 377.865C1643.78 372.035 1636.67 364.286 1631.19 355.452C1625.61 346.438 1621.75 336.3 1620.03 326.144C1618.48 317.02 1618.63 307.922 1620.46 299.047L1630.08 298.598L1639.45 298.222C1687.93 296.466 1737.5 297.818 1781.3 314.065C1836.69 334.616 1875.28 377.024 1899.29 443.707C1900.27 446.442 1902.27 448.63 1904.9 449.868C1907.53 451.1 1910.49 451.243 1913.22 450.259C1918.86 448.223 1921.8 441.986 1919.77 436.355L1918.93 434.071L1917.89 431.319C1909.68 390.561 1897.45 354.521 1881.44 323.786C1896.77 330.917 1913.68 332.602 1928.05 328.208C1930.05 327.6 1931.97 326.903 1933.81 326.122C1951.27 318.733 1961.83 303.882 1961.15 286.982C1960.65 274.38 1953.8 262.316 1944.1 256.963C1936.85 252.958 1928.94 253.239 1921.85 257.742C1917.54 260.477 1912.13 268.02 1913.48 273.635C1913.72 274.609 1914.36 275.415 1915.24 275.847C1915.7 276.076 1916.59 276.371 1917.72 276.022L1918.31 275.79C1923.54 273.274 1929.75 274.664 1934.95 279.511C1941 285.153 1943.61 293.623 1941.3 300.106C1938.31 308.524 1931.08 312.872 1925.53 315.052C1914.66 319.308 1900.94 318.987 1890.74 314.352L1888.85 313.434C1879.89 309.715 1872.05 304.177 1865.72 297.168L1867.11 299.244C1844.15 264.121 1814.74 237.601 1782.08 222.559C1752.94 209.141 1722.19 204.919 1693.16 210.349C1677.55 213.262 1663.38 218.82 1651.04 226.869C1629.59 240.867 1614.54 258.05 1606.26 277.985L1592.5 278.747C1590.72 278.846 1588.38 279.036 1585.57 279.28L1572.25 280.431L1565.8 280.931C1533.68 283.28 1483.98 284.648 1464.15 267.611C1459.15 263.312 1456.52 258.147 1456.12 251.815C1455.81 246.868 1452.8 244.518 1450.08 243.961C1445.17 242.968 1440.29 247.091 1438 251.679C1434.34 258.959 1433.7 265.349 1434.55 270.697C1410.23 262.568 1390.47 248.831 1376.98 230.574C1367.85 218.227 1361.73 204.177 1358.78 188.81C1356.47 176.806 1361.5 158.58 1370.24 147.31C1373.54 143.052 1378.76 137.949 1385.4 136.914L1386.84 136.756C1391.78 136.45 1394.13 133.439 1394.68 130.725C1395.67 125.828 1391.55 120.941 1386.95 118.645C1381.16 115.748 1375.44 114.525 1369.95 114.953C1370.38 114.134 1370.82 113.323 1371.27 112.523C1384.88 87.859 1406.48 69.3966 1433.74 59.1161C1461.25 48.7242 1485.45 53.2388 1500.93 58.8625C1513.69 63.4913 1525.58 70.7789 1535.31 79.9433C1544.92 88.9819 1552.24 99.6889 1556.49 110.91C1562.07 125.645 1562.25 141.017 1557.04 155.367C1548.72 178.257 1532.41 192.091 1512.28 193.324C1505.56 193.736 1498.62 192.701 1492.23 190.325C1488.96 189.117 1485.9 187.595 1483.09 185.788L1482.14 184.799C1481.35 183.984 1480.56 183.134 1479.8 182.259L1478.66 180.929C1470.7 171.746 1468.01 162.716 1470.8 154.739C1473.32 147.552 1480.27 141.923 1488.5 140.398C1496 139.01 1502.98 141.365 1507.65 146.86C1509.55 149.093 1511.74 149.371 1512.88 149.343C1514.72 149.292 1516.43 148.412 1517.57 146.924C1523.35 139.31 1520.15 124.583 1515.32 117.373C1503.95 100.427 1485.22 95.9482 1467.61 105.962C1441.63 120.732 1437.03 152.59 1447.55 175C1450.24 182.564 1454.66 189.465 1460.69 195.514C1467.25 202.09 1475.55 207.35 1484.69 210.73C1493.89 214.14 1503.91 215.632 1513.64 215.039C1542.82 213.241 1566.1 194.205 1577.5 162.809C1584.52 143.517 1584.3 122.919 1576.86 103.245C1571.43 88.9287 1562.22 75.3979 1550.24 64.1127C1538.37 52.9422 1523.88 44.055 1508.35 38.4146C1481.21 28.5832 1452.77 28.6798 1426.05 38.7652C1406.47 46.1508 1389.33 57.1535 1375.28 71.2361C1376.11 53.9503 1371.05 37.2831 1361.18 25.5227C1359.84 23.9238 1358.45 22.4287 1357.01 21.0361C1343.39 7.85721 1325.59 3.93667 1310.3 11.1624ZM1731.99 228.664C1727.66 233.785 1725.28 240.448 1725.08 248.276C1724.95 253.377 1727.3 259.29 1732.06 260.749C1734.77 261.559 1738.54 260.905 1741.14 256.689C1746.72 247.627 1753.89 243.165 1763.06 243.045C1766.84 242.997 1770.82 243.67 1774.91 244.922C1804.13 253.889 1839.12 292.612 1850.53 310.059C1858.79 322.705 1866.27 336.669 1872.91 351.829C1810.51 277.941 1719.22 272.959 1628.91 276.86C1636.17 264.203 1647.22 252.985 1661.87 243.431C1671.86 236.917 1683.93 232.201 1696.79 229.799C1708.2 227.663 1719.99 227.284 1731.99 228.664Z" fill="#3C6D7F"/>
</svg>
